<svg width="67" height="67" viewBox="0 0 67 67" fill="none" xmlns="http://www.w3.org/2000/svg">
<rect x="1.25" y="1.25" width="64.5" height="64.5" rx="32.25" stroke="white" stroke-width="2.5"/>
<path d="M52.2897 18.8616C46.3428 16.4705 39.7185 16.3798 33.7083 18.6072C27.6982 16.3798 21.0739 16.4705 15.127 18.8616C14.7942 18.9945 14.509 19.2242 14.3081 19.5209C14.1072 19.8176 13.9999 20.1677 14 20.526V47.4673C13.9999 47.7601 14.0715 48.0485 14.2087 48.3071C14.3458 48.5658 14.5442 48.787 14.7866 48.9512C15.029 49.1154 15.3079 49.2178 15.599 49.2493C15.8901 49.2807 16.1845 49.2404 16.4564 49.1318C21.7781 46.9903 27.7219 46.9903 33.0436 49.1318C33.243 49.2073 33.454 49.2474 33.6671 49.25C33.6815 49.25 33.694 49.25 33.7083 49.25C33.7227 49.25 33.7352 49.25 33.7495 49.25C33.9627 49.2474 34.1737 49.2073 34.373 49.1318C39.6948 46.9903 45.6386 46.9903 50.9603 49.1318C51.2321 49.2406 51.5264 49.2812 51.8175 49.25C52.1086 49.2187 52.3876 49.1166 52.6301 48.9526C52.8727 48.7882 53.0712 48.5669 53.2084 48.3079C53.3455 48.049 53.417 47.7603 53.4167 47.4673V20.526C53.4168 20.1677 53.3095 19.8176 53.1086 19.5209C52.9077 19.2242 52.6225 18.9945 52.2897 18.8616ZM31.9167 44.9751C27.238 43.6046 22.2651 43.599 17.5833 44.959V21.773C22.2321 20.195 27.273 20.2032 31.9167 21.7963V44.9751ZM49.8333 44.959C45.1518 43.6027 40.1815 43.6027 35.5 44.959V21.7963C40.1437 20.2032 45.1845 20.195 49.8333 21.773V44.959Z" fill="white"/>
</svg>
