<svg width="62" height="62" viewBox="0 0 62 62" fill="none" xmlns="http://www.w3.org/2000/svg">
<g clip-path="url(#clip0_652_588)">
<g clip-path="url(#clip1_652_588)">
<rect width="62" height="62" fill="#D9D9D9" fill-opacity="0.75"/>
<path d="M30.9996 47.3623C30.2607 47.3623 29.7549 47.855 29.7549 48.6071V56.049C29.7549 56.7881 30.2476 57.2938 30.9996 57.2938C31.7517 57.2938 32.2443 56.801 32.2443 56.049V48.607C32.2313 47.855 31.7386 47.3623 30.9996 47.3623Z" fill="url(#paint0_linear_652_588)"/>
<path d="M14.8709 31C14.8709 30.2611 14.3782 29.7554 13.6262 29.7554H6.18412C5.4451 29.7554 4.93945 30.4944 4.93945 31C4.93945 31.7391 5.43213 32.2448 5.93778 32.2448H13.3799C14.1318 32.2317 14.8709 31.7391 14.8709 31Z" fill="url(#paint1_linear_652_588)"/>
<path d="M30.9996 14.8714C31.7386 14.8714 32.2443 14.3787 32.2443 13.6267V6.18461C32.2443 5.44559 31.7517 4.93994 30.9996 4.93994C30.2476 4.93994 29.7549 5.43262 29.7549 6.18461V13.6267C29.7549 14.3787 30.2476 14.8714 30.9996 14.8714Z" fill="url(#paint2_linear_652_588)"/>
<path d="M31 0C13.8858 0 0 13.8858 0 31C0 48.1142 13.8858 62 31 62C48.1142 62 62 48.1142 62 31C62 13.8858 48.1012 0 31 0ZM31 59.5107C15.1305 59.5107 2.48934 46.8695 2.48934 31C2.48934 15.1305 15.1305 2.48934 31 2.48934C46.8695 2.48934 59.5107 15.1305 59.5107 31C59.5107 46.8695 46.8695 59.5107 31 59.5107Z" fill="url(#paint3_linear_652_588)"/>
<path d="M26.5274 26.5269C22.0673 30.9869 14.3789 47.6084 14.3789 47.6084C14.3789 47.6084 31.0004 39.6737 35.4605 35.46C39.9205 31.2463 47.6089 14.3784 47.6089 14.3784C47.6089 14.3784 31.0004 22.3132 26.5274 26.5269ZM19.8373 42.3964C19.8373 42.3964 25.7884 31.2333 28.5111 28.5106L33.7231 33.7226C31.0004 36.4453 19.8373 42.3964 19.8373 42.3964Z" fill="url(#paint4_linear_652_588)"/>
<path d="M56.0364 29.7554H48.5943C47.8553 29.7554 47.3496 30.2481 47.3496 31C47.3496 31.7522 47.8423 32.2448 48.5943 32.2448H56.0364C56.7754 32.2448 57.281 31.7522 57.281 31C57.0347 30.4944 56.529 29.7554 56.0364 29.7554Z" fill="url(#paint5_linear_652_588)"/>
</g>
</g>
<rect x="1.25" y="1.25" width="59.5" height="59.5" rx="29.75" stroke="black" stroke-opacity="0.5" stroke-width="2.5"/>
<defs>
<linearGradient id="paint0_linear_652_588" x1="29.7549" y1="52.3131" x2="32.2443" y2="52.3131" gradientUnits="userSpaceOnUse">
<stop/>
<stop offset="0.111111" stop-color="#0D1946"/>
<stop offset="0.222222" stop-color="#461452"/>
<stop offset="0.333333" stop-color="#610F4A"/>
<stop offset="0.444444" stop-color="#67165C"/>
<stop offset="0.868889" stop-color="#0C0E4A"/>
<stop offset="1" stop-color="#01001C"/>
</linearGradient>
<linearGradient id="paint1_linear_652_588" x1="4.93945" y1="30.9963" x2="14.8709" y2="30.9963" gradientUnits="userSpaceOnUse">
<stop/>
<stop offset="0.111111" stop-color="#0D1946"/>
<stop offset="0.222222" stop-color="#461452"/>
<stop offset="0.333333" stop-color="#610F4A"/>
<stop offset="0.444444" stop-color="#67165C"/>
<stop offset="0.868889" stop-color="#0C0E4A"/>
<stop offset="1" stop-color="#01001C"/>
</linearGradient>
<linearGradient id="paint2_linear_652_588" x1="29.7549" y1="9.89064" x2="32.2443" y2="9.89064" gradientUnits="userSpaceOnUse">
<stop/>
<stop offset="0.111111" stop-color="#0D1946"/>
<stop offset="0.222222" stop-color="#461452"/>
<stop offset="0.333333" stop-color="#610F4A"/>
<stop offset="0.444444" stop-color="#67165C"/>
<stop offset="0.868889" stop-color="#0C0E4A"/>
<stop offset="1" stop-color="#01001C"/>
</linearGradient>
<linearGradient id="paint3_linear_652_588" x1="2.1779e-07" y1="30.9063" x2="62" y2="30.9063" gradientUnits="userSpaceOnUse">
<stop/>
<stop offset="0.111111" stop-color="#0D1946"/>
<stop offset="0.222222" stop-color="#461452"/>
<stop offset="0.333333" stop-color="#610F4A"/>
<stop offset="0.444444" stop-color="#67165C"/>
<stop offset="0.868889" stop-color="#0C0E4A"/>
<stop offset="1" stop-color="#01001C"/>
</linearGradient>
<linearGradient id="paint4_linear_652_588" x1="14.3789" y1="30.9432" x2="47.6089" y2="30.9432" gradientUnits="userSpaceOnUse">
<stop/>
<stop offset="0.111111" stop-color="#0D1946"/>
<stop offset="0.222222" stop-color="#461452"/>
<stop offset="0.333333" stop-color="#610F4A"/>
<stop offset="0.444444" stop-color="#67165C"/>
<stop offset="0.868889" stop-color="#0C0E4A"/>
<stop offset="1" stop-color="#01001C"/>
</linearGradient>
<linearGradient id="paint5_linear_652_588" x1="47.3496" y1="30.9963" x2="57.281" y2="30.9963" gradientUnits="userSpaceOnUse">
<stop/>
<stop offset="0.111111" stop-color="#0D1946"/>
<stop offset="0.222222" stop-color="#461452"/>
<stop offset="0.333333" stop-color="#610F4A"/>
<stop offset="0.444444" stop-color="#67165C"/>
<stop offset="0.868889" stop-color="#0C0E4A"/>
<stop offset="1" stop-color="#01001C"/>
</linearGradient>
<clipPath id="clip0_652_588">
<rect width="62" height="62" rx="31" fill="white"/>
</clipPath>
<clipPath id="clip1_652_588">
<rect width="62" height="62" fill="white"/>
</clipPath>
</defs>
</svg>
