<svg width="62" height="62" viewBox="0 0 62 62" fill="none" xmlns="http://www.w3.org/2000/svg">
<g clip-path="url(#clip0_652_592)">
<g clip-path="url(#clip1_652_592)">
<path d="M31 47.3623C30.2611 47.3623 29.7554 47.855 29.7554 48.6071V56.049C29.7554 56.7881 30.2481 57.2938 31 57.2938C31.7522 57.2938 32.2448 56.801 32.2448 56.049V48.607C32.2317 47.855 31.7391 47.3623 31 47.3623Z" fill="white"/>
<path d="M14.8714 31C14.8714 30.2611 14.3787 29.7554 13.6267 29.7554H6.18461C5.44559 29.7554 4.93994 30.4944 4.93994 31C4.93994 31.7391 5.43262 32.2448 5.93827 32.2448H13.3803C14.1323 32.2317 14.8714 31.7391 14.8714 31Z" fill="white"/>
<path d="M31 14.8714C31.7391 14.8714 32.2448 14.3787 32.2448 13.6267V6.18461C32.2448 5.44559 31.7522 4.93994 31 4.93994C30.2481 4.93994 29.7554 5.43262 29.7554 6.18461V13.6267C29.7554 14.3787 30.2481 14.8714 31 14.8714Z" fill="white"/>
<path d="M31 0C13.8858 0 0 13.8858 0 31C0 48.1142 13.8858 62 31 62C48.1142 62 62 48.1142 62 31C62 13.8858 48.1012 0 31 0ZM31 59.5107C15.1305 59.5107 2.48934 46.8695 2.48934 31C2.48934 15.1305 15.1305 2.48934 31 2.48934C46.8695 2.48934 59.5107 15.1305 59.5107 31C59.5107 46.8695 46.8695 59.5107 31 59.5107Z" fill="white"/>
<path d="M26.5269 26.5269C22.0668 30.9869 14.3784 47.6084 14.3784 47.6084C14.3784 47.6084 30.9999 39.6737 35.46 35.46C39.92 31.2463 47.6084 14.3784 47.6084 14.3784C47.6084 14.3784 30.9999 22.3132 26.5269 26.5269ZM19.8368 42.3964C19.8368 42.3964 25.7879 31.2333 28.5106 28.5106L33.7226 33.7226C30.9999 36.4453 19.8368 42.3964 19.8368 42.3964Z" fill="white"/>
<path d="M56.0359 29.7554H48.5938C47.8548 29.7554 47.3491 30.2481 47.3491 31C47.3491 31.7522 47.8418 32.2448 48.5938 32.2448H56.0359C56.7749 32.2448 57.2805 31.7522 57.2805 31C57.0342 30.4944 56.5285 29.7554 56.0359 29.7554Z" fill="white"/>
</g>
</g>
<rect x="0.2" y="0.2" width="61.6" height="61.6" rx="30.8" stroke="white" stroke-opacity="0.5" stroke-width="0.4"/>
<defs>
<clipPath id="clip0_652_592">
<rect width="62" height="62" rx="31" fill="white"/>
</clipPath>
<clipPath id="clip1_652_592">
<rect width="62" height="62" fill="white"/>
</clipPath>
</defs>
</svg>
