<svg width="251" height="233" viewBox="0 0 251 233" fill="none" xmlns="http://www.w3.org/2000/svg">
<path d="M139.88 14.0538L165.831 55.2099C169.962 61.7605 176.541 66.3869 184.103 68.0584L231.432 78.52C244.187 81.3395 249.129 96.894 240.339 106.558L209.621 140.331C204.152 146.344 201.458 154.375 202.194 162.47L206.337 208.031C207.489 220.7 194.828 230.1 183.034 225.331L136.371 206.463C129.398 203.644 121.602 203.644 114.629 206.463L67.966 225.331C56.1722 230.1 43.5113 220.7 44.6634 208.031L48.8064 162.47C49.5425 154.375 46.8479 146.344 41.379 140.331L10.6611 106.558C1.87132 96.8939 6.81265 81.3395 19.5681 78.52L66.8973 68.0584C74.4589 66.3869 81.038 61.7605 85.1686 55.2099L111.12 14.0539C117.789 3.47711 133.211 3.4771 139.88 14.0538Z" stroke="url(#paint0_linear_64_52)" stroke-width="12"/>
<defs>
<linearGradient id="paint0_linear_64_52" x1="125.5" y1="-20" x2="125.5" y2="273" gradientUnits="userSpaceOnUse">
<stop stop-color="#F0F2FC"/>
<stop offset="0.115" stop-color="#EDEFFE"/>
<stop offset="0.225" stop-color="#F5D7FA"/>
<stop offset="0.35" stop-color="#F5AEE9"/>
<stop offset="0.47" stop-color="#F4AAE9"/>
<stop offset="0.84" stop-color="#D7D8FE"/>
<stop offset="1" stop-color="#F4F4FF"/>
</linearGradient>
</defs>
</svg>
