<svg width="287" height="164" viewBox="0 0 287 164" fill="none" xmlns="http://www.w3.org/2000/svg">
<path d="M217.5 78.7187C195.718 78.7187 177.997 61.0621 177.997 39.3593C177.997 17.6565 195.718 0 217.5 0C239.282 0 257.004 17.6565 257.004 39.3593C257.004 61.0621 239.282 78.7187 217.5 78.7187ZM217.5 8.45361C200.396 8.45361 186.481 22.3179 186.481 39.3593C186.481 56.4008 200.396 70.265 217.5 70.265C234.604 70.265 248.519 56.4008 248.519 39.3593C248.519 22.3179 234.604 8.45361 217.5 8.45361ZM267.456 164H167.544C156.768 164 148 155.264 148 144.527V132.345C148 106.995 168.699 86.3722 194.141 86.3722H240.859C266.301 86.3722 287 106.995 287 132.345V144.527C287 155.264 278.233 164 267.456 164ZM194.141 94.8258C173.377 94.8258 156.485 111.657 156.485 132.345V144.527C156.485 150.603 161.446 155.546 167.544 155.546H267.456C273.554 155.546 278.516 150.603 278.516 144.527V132.345C278.516 111.657 261.623 94.8258 240.86 94.8258H194.141Z" fill="url(#paint0_linear_671_530)"/>
<path d="M69.5002 78.7187C47.7179 78.7187 29.9967 61.0621 29.9967 39.3593C29.9967 17.6565 47.7179 0 69.5002 0C91.2824 0 109.004 17.6565 109.004 39.3593C109.004 61.0621 91.2824 78.7187 69.5002 78.7187ZM69.5002 8.45361C52.3963 8.45361 38.4813 22.3179 38.4813 39.3593C38.4813 56.4008 52.3963 70.265 69.5002 70.265C86.604 70.265 100.519 56.4008 100.519 39.3593C100.519 22.3179 86.604 8.45361 69.5002 8.45361ZM119.456 164H19.5444C8.76762 164 0 155.264 0 144.527V132.345C0 106.995 20.6986 86.3722 46.1408 86.3722H92.8592C118.301 86.3722 139 106.995 139 132.345V144.527C139 155.264 130.233 164 119.456 164ZM46.1408 94.8258C25.377 94.8258 8.48457 111.657 8.48457 132.345V144.527C8.48457 150.603 13.446 155.546 19.5444 155.546H119.456C125.554 155.546 130.516 150.603 130.516 144.527V132.345C130.516 111.657 113.623 94.8258 92.8596 94.8258H46.1408Z" fill="url(#paint1_linear_671_530)"/>
<defs>
<linearGradient id="paint0_linear_671_530" x1="148" y1="81.7523" x2="287" y2="81.7523" gradientUnits="userSpaceOnUse">
<stop stop-color="#F1F3FC"/>
<stop offset="0.111111" stop-color="#EDF1FF"/>
<stop offset="0.222222" stop-color="#F5D9FC"/>
<stop offset="0.333333" stop-color="#F9BFE8"/>
<stop offset="0.444444" stop-color="#F4AAEA"/>
<stop offset="0.868889" stop-color="#D7D9FF"/>
<stop offset="1" stop-color="#F6F5FF"/>
</linearGradient>
<linearGradient id="paint1_linear_671_530" x1="4.88271e-07" y1="81.7523" x2="139" y2="81.7523" gradientUnits="userSpaceOnUse">
<stop stop-color="#F1F3FC"/>
<stop offset="0.111111" stop-color="#EDF1FF"/>
<stop offset="0.222222" stop-color="#F5D9FC"/>
<stop offset="0.333333" stop-color="#F9BFE8"/>
<stop offset="0.444444" stop-color="#F4AAEA"/>
<stop offset="0.868889" stop-color="#D7D9FF"/>
<stop offset="1" stop-color="#F6F5FF"/>
</linearGradient>
</defs>
</svg>
