<svg width="212" height="239" viewBox="0 0 212 239" fill="none" xmlns="http://www.w3.org/2000/svg">
<path d="M106 114.718C72.7784 114.718 45.7503 88.9868 45.7503 57.359C45.7503 25.7312 72.7784 0 106 0C139.222 0 166.25 25.7312 166.25 57.359C166.25 88.9868 139.222 114.718 106 114.718ZM106 12.3196C79.9138 12.3196 58.6908 32.5242 58.6908 57.359C58.6908 82.1938 79.9138 102.398 106 102.398C132.087 102.398 153.31 82.1938 153.31 57.359C153.31 32.5242 132.087 12.3196 106 12.3196ZM182.192 239H29.8087C13.3722 239 0 226.269 0 210.622V192.868C0 155.926 31.5691 125.872 70.373 125.872H141.627C180.431 125.872 212 155.926 212 192.868V210.622C212.001 226.269 198.628 239 182.192 239ZM70.373 138.191C38.7045 138.191 12.9405 162.719 12.9405 192.868V210.622C12.9405 219.476 20.5076 226.68 29.8087 226.68H182.192C191.493 226.68 199.06 219.476 199.06 210.622V192.868C199.06 162.719 173.296 138.191 141.628 138.191H70.373Z" fill="url(#paint0_linear_601_510)"/>
<defs>
<linearGradient id="paint0_linear_601_510" x1="7.44701e-07" y1="119.139" x2="212" y2="119.139" gradientUnits="userSpaceOnUse">
<stop stop-color="#F1F3FC"/>
<stop offset="0.111111" stop-color="#EDF1FF"/>
<stop offset="0.222222" stop-color="#F5D9FC"/>
<stop offset="0.333333" stop-color="#F9BFE8"/>
<stop offset="0.444444" stop-color="#F4AAEA"/>
<stop offset="0.868889" stop-color="#D7D9FF"/>
<stop offset="1" stop-color="#F6F5FF"/>
</linearGradient>
</defs>
</svg>
