<svg width="112" height="459" viewBox="0 0 112 459" fill="none" xmlns="http://www.w3.org/2000/svg">
<path d="M63.5 8C63.5 3.85786 60.1421 0.5 56 0.5C51.8579 0.5 48.5 3.85786 48.5 8L63.5 8ZM50.6967 456.303C53.6257 459.232 58.3744 459.232 61.3033 456.303L109.033 408.574C111.962 405.645 111.962 400.896 109.033 397.967C106.104 395.038 101.355 395.038 98.4264 397.967L56 440.393L13.5736 397.967C10.6447 395.038 5.89594 395.038 2.96701 397.967C0.0380764 400.896 0.0380766 405.645 2.96701 408.574L50.6967 456.303ZM48.5 8L48.5 229.5L63.5 229.5L63.5 8L48.5 8ZM48.5 229.5L48.5 451L63.5 451L63.5 229.5L48.5 229.5Z" fill="#604882" fill-opacity="1"/>
</svg>
