<svg width="73" height="73" viewBox="0 0 73 73" fill="none" xmlns="http://www.w3.org/2000/svg">
<path d="M36.769 41.4154C31.7268 41.4154 27.6263 37.3203 27.6263 32.2929C27.6263 27.2655 31.7268 23.1704 36.769 23.1704C41.8113 23.1704 45.9118 27.2655 45.9118 32.2929C45.9118 37.3203 41.8113 41.4154 36.769 41.4154ZM36.769 23.3445C31.8271 23.3445 27.8048 27.356 27.8048 32.2929C27.8048 37.2298 31.8271 41.2413 36.769 41.2413C41.711 41.2413 45.7333 37.2298 45.7333 32.2929C45.7333 27.356 41.711 23.3445 36.769 23.3445ZM23.9427 63.3482C21.7261 63.3482 19.9246 61.5474 19.9246 59.3401V56.207C19.9246 50.2418 24.7894 45.3837 30.7714 45.3837H42.7666C48.7486 45.3837 53.6134 50.2418 53.6134 56.207V59.3401C53.6135 61.5474 51.812 63.3482 49.5954 63.3482H23.9427ZM30.7714 45.5579C24.8898 45.5579 20.103 50.3323 20.103 56.207V59.3401C20.103 61.4569 21.8265 63.1741 23.9427 63.1741H49.5954C51.7116 63.1741 53.4351 61.4569 53.4351 59.3401V56.207C53.4351 50.3323 48.6483 45.5579 42.7667 45.5579H30.7714Z" fill="white" stroke="white" stroke-width="2"/>
</svg>
